<svg width="52" height="52" viewBox="0 0 52 52" fill="none" xmlns="http://www.w3.org/2000/svg">
<rect width="52" height="52" rx="8" fill="white" fill-opacity="0.01"/>
<path d="M26.6553 17.8923C27.0298 19.316 28.5101 20.9378 30.2705 22.4763C32.2826 24.2348 34.0068 25.5923 35.2988 25.3337L39.1182 29.7937L17.8818 45.9997L6 28.1736L26.6553 17.8923ZM17.8145 22.7087C17.789 22.7222 17.7652 22.74 17.7451 22.7614L14.0127 26.7409L8.78613 29.5427C8.63913 29.6215 8.59188 29.8306 8.68848 29.9763L14.6787 39.0085C14.7673 39.1421 14.9394 39.1749 15.0625 39.0818C15.1855 38.9886 15.2136 38.8042 15.125 38.6706L9.32031 29.9196L14.0918 27.3611L14.6279 28.1687L10.7568 30.3757C10.747 30.3813 10.7375 30.3875 10.7285 30.3943C10.6746 30.435 10.6361 30.4961 10.6211 30.5661C10.6037 30.6482 10.6201 30.7351 10.666 30.8044L14.9463 37.2585V37.2595L17.1699 40.6111C17.2508 40.7331 17.4029 40.7731 17.5244 40.7038L21.4551 38.4636L21.9824 39.2595L17.2109 41.8171L15.8086 39.7029C15.7199 39.5697 15.5487 39.5367 15.4258 39.6296C15.3027 39.7227 15.2746 39.9071 15.3633 40.0407L16.9043 42.363C16.9837 42.4826 17.1312 42.5233 17.252 42.4587L22.5137 39.6384C22.5405 39.6246 22.5658 39.6052 22.5869 39.5827L26.3193 35.6032L29.3545 33.9743L29.1328 33.4304L26.2393 34.9831L25.7041 34.1745L28.7334 32.448L28.5107 31.9021L25.3809 33.6872L24.7998 32.8112L26.833 30.5525C26.8936 30.5224 26.9417 30.4688 26.9678 30.403L27.6104 29.6892L27.3711 29.1003L26.5654 29.9948L23.1562 30.1208L22.9434 26.8581L24.5859 25.9206L24.1377 25.5046L22.9014 26.2097L22.7725 24.2361L22.1865 23.6911L22.3711 26.5124L21.1016 27.2361L19.2119 24.3855L21.6523 23.195L21.1924 22.7683L18.8857 23.8933L18.3486 23.0847L20.1455 22.1208L19.5674 21.7683L17.8145 22.7087ZM20.0068 38.6169L17.4736 40.0603L15.5508 37.1609L16.6064 36.362L20.0068 38.6169ZM25.7969 35.323L22.4258 38.9177L21.8945 38.1179L25.2656 34.5232L25.7969 35.323ZM21.1318 37.9753L20.5645 38.2986C20.5617 38.2965 20.5595 38.2937 20.5566 38.2917L19.5225 37.6071L20.3809 36.8435L21.1318 37.9753ZM23.21 35.8786L21.5693 37.6267L20.8018 36.4695L22.1787 35.2439C22.1822 35.2408 22.1852 35.2374 22.1885 35.2341L23.21 35.8786ZM20.0586 36.3581L19.0254 37.278L17.0908 35.9948L18.9062 34.6208L20.0586 36.3581ZM15.8076 34.3064L15.085 36.4597L13.5957 34.2136L13.918 33.3503L15.8076 34.3064ZM18.5859 34.1364L16.4336 35.7663L16.4316 35.7683L15.7246 36.3034L17.1689 31.9997L18.5859 34.1364ZM21.6816 34.9138L20.4795 35.9841L19.4258 34.3952L20.4414 34.1296L21.6816 34.9138ZM24.9404 34.0329L23.6094 35.4519L21.2021 33.9314L24.3311 33.113L24.9404 34.0329ZM20.2441 33.572L19.082 33.8757L17.5498 31.5661L20.4707 30.8816L20.2441 33.572ZM16.7354 31.5446L15.9941 33.7527L14.1221 32.8054L14.8711 30.8025L16.7354 31.5446ZM14.3535 30.5964L13.2148 33.6404L11.293 30.7419L12.7012 29.9392L14.3535 30.5964ZM23.9863 32.5945L20.8086 33.4245L21.0303 30.7898L22.748 30.7263L23.9863 32.5945ZM24.4727 32.3191L23.4004 30.7019L26.0156 30.6052L24.4727 32.3191ZM20.7383 27.696L20.5225 30.2644L17.2021 31.0417L15.3906 28.3112L18.7627 24.7175L20.7383 27.696ZM16.3496 30.7654L13.3477 29.571L14.9512 28.657L16.3496 30.7654ZM22.3652 30.1501L21.0801 30.198L21.2275 28.4353L22.3652 30.1501ZM22.5615 29.4372L21.4248 27.7234L22.4141 27.1599L22.5615 29.4372ZM27.3574 29.0671L26.9834 28.1482L26.3682 27.5769L27.3574 29.0671ZM18.4365 24.2263L15.0654 27.82L14.5352 27.0202L17.9062 23.4265L18.4365 24.2263Z" fill="#356A32"/>
<g filter="url(#filter0_f_7_28)">
<path d="M26.225 36.0064C26.5896 37.4347 25.9722 39.7625 25.9722 39.7625L26.7306 39.2476C26.7306 39.2476 28.1341 36.9304 28.2475 35.4662C28.3466 34.1873 28.1958 33.413 27.7419 32.225C27.2864 31.0329 27.2363 31.2328 25.9722 29.524C25.1486 28.4106 24.8468 27.8442 23.9497 26.7977C22.2045 24.7618 19.1463 21.6658 19.1463 21.6658L16.3653 23.0416C16.3653 23.0416 20.2425 26.7029 22.18 29.2539C24.0964 31.7771 25.4666 33.0353 26.225 36.0064Z" fill="#223F21"/>
</g>
<path fill-rule="evenodd" clip-rule="evenodd" d="M25.5051 6C25.5051 6 38.1072 11.6974 44.4276 18.6947C45.0605 19.3955 45.6916 20.3153 45.9444 22.206C46.3601 24.8702 44.1747 26.0127 44.1747 26.0127L41.4382 28.0886C41.4101 28.1439 41.3938 28.1735 41.3938 28.1735L31.6936 35.4852C31.6936 35.4852 31.6943 35.483 31.6966 35.4794L26.7307 39.2476C26.7307 39.2476 28.3564 36.5539 28.2475 34.6559C28.1634 33.1895 27.7271 32.3804 26.9835 31.1446C22.4328 23.5818 8.02252 11.6974 8.02252 11.6974L25.5051 6ZM13.0788 12.5077C13.0788 12.5077 27.1962 24.5832 30.6167 30.3586C31.1756 31.3023 31.5035 31.9203 31.5667 33.0401C31.6485 34.4895 30.5229 36.2765 30.5229 36.2765L31.7904 35.3169C32.0478 34.8649 32.7175 33.58 32.6565 32.4977C32.5982 31.4641 32.2954 30.8937 31.78 30.0225C29.4936 26.1582 21.5666 18.5723 17.6294 14.9133C17.8811 14.7983 18.3042 14.888 18.6407 14.6432C19.176 14.2536 19.6519 13.2927 18.8935 12.2123L23.9497 10.0515C24.961 11.1319 25.7194 11.402 26.9771 11.0501C27.2371 10.9504 27.4748 10.8177 27.6871 10.6619C31.3882 12.7923 39.169 17.5242 40.8882 20.5854C41.8186 22.2421 41.977 23.2687 42.1522 24.4111C42.3845 25.9257 41.7473 27.4435 41.4926 27.9746L42.6579 27.0931C42.6579 27.0931 43.4759 25.591 43.1635 23.5565C42.9735 22.3189 42.9123 21.9907 42.1522 20.3406C39.8769 15.9937 25.7194 8.18612 25.7194 8.18612L13.0788 12.5077ZM34.5679 17.6143C31.9543 15.3301 28.3096 14.2618 26.9835 15.9937C25.6574 17.7256 27.6564 20.1919 30.27 22.4761C32.8836 24.7603 35.0115 26.3688 36.3375 24.6369C37.6636 22.905 37.1815 19.8985 34.5679 17.6143Z" fill="#77AD1A"/>
<defs>
<filter id="filter0_f_7_28" x="13.3809" y="18.6813" width="17.8802" height="24.0656" filterUnits="userSpaceOnUse" color-interpolation-filters="sRGB">
<feFlood flood-opacity="0" result="BackgroundImageFix"/>
<feBlend mode="normal" in="SourceGraphic" in2="BackgroundImageFix" result="shape"/>
<feGaussianBlur stdDeviation="1.49222" result="effect1_foregroundBlur_7_28"/>
</filter>
</defs>
</svg>
