<svg width="159" height="52" viewBox="0 0 159 52" fill="none" xmlns="http://www.w3.org/2000/svg">
<rect width="159" height="52" rx="8" fill="white" fill-opacity="0.01"/>
<path d="M23.4443 19.4677C23.7426 20.6011 24.9208 21.8923 26.3223 23.1172C27.9241 24.5171 29.2966 25.5983 30.3252 25.3925L33.3662 28.9433L16.46 41.8447L7 27.6533L23.4443 19.4677ZM16.4053 23.3017C16.385 23.3125 16.3666 23.3276 16.3506 23.3447L13.3789 26.5127L9.21777 28.7431C9.10074 28.8059 9.06373 28.9719 9.14062 29.0879L13.9092 36.2783C13.9797 36.3847 14.1169 36.411 14.2148 36.3369C14.3126 36.2627 14.3352 36.1161 14.2646 36.0097L9.64355 29.0429L13.4424 27.0058L13.8691 27.6494L10.7871 29.4052C10.7792 29.4098 10.7719 29.4154 10.7646 29.4209C10.7218 29.4533 10.6907 29.5018 10.6787 29.5576C10.6649 29.623 10.6782 29.6928 10.7148 29.748L14.1221 34.8857L15.8926 37.5547C15.957 37.6518 16.0781 37.684 16.1748 37.6289L19.3037 35.8447L19.7246 36.4785L15.9258 38.5156L14.8096 36.832C14.739 36.7256 14.6019 36.6993 14.5039 36.7734C14.406 36.8475 14.3836 36.9942 14.4541 37.1006L15.6807 38.9492C15.7439 39.0445 15.8618 39.0769 15.958 39.0254L20.1465 36.7802C20.168 36.7692 20.1882 36.7533 20.2051 36.7353L23.1768 33.5683L25.5928 32.2715L25.416 31.8388L23.1133 33.0742L22.6865 32.4306L25.0977 31.0556L24.9209 30.622L22.4287 32.042L21.9668 31.3447L23.5859 29.5468C23.634 29.5229 23.6717 29.4799 23.6924 29.4277L24.2041 28.8593L24.0137 28.3906L23.373 29.1025L20.6582 29.2031L20.4893 26.6054L21.7969 25.8593L21.4395 25.5283L20.4551 26.0898L20.3525 24.5175L19.8867 24.0849L20.0332 26.33L19.0225 26.9062L17.5186 24.6377L19.4609 23.6894L19.0947 23.3486L17.2578 24.2451L16.8311 23.6015L18.2607 22.834L17.8008 22.5527L16.4053 23.3017ZM18.1514 35.9668L16.1338 37.1162L14.6035 34.8086L15.4443 34.1718L18.1514 35.9668ZM22.7607 33.3447L20.0762 36.206L19.6543 35.5693L22.3379 32.708L22.7607 33.3447ZM19.0469 35.457L18.5957 35.7138C18.5935 35.7122 18.5911 35.7105 18.5889 35.709L17.7656 35.1631L18.4492 34.5556L19.0469 35.457ZM20.7012 33.7871L19.3955 35.1787L18.7842 34.2568L19.8799 33.2822C19.8828 33.2796 19.885 33.2761 19.8877 33.2734L20.7012 33.7871ZM18.1924 34.1689L17.3701 34.9004L15.8301 33.8799L17.2754 32.7851L18.1924 34.1689ZM14.8086 32.5351L14.2324 34.249L13.0469 32.4609L13.3037 31.7744L14.8086 32.5351ZM17.0195 32.4004L15.3057 33.6972V33.6982L15.3047 33.6992L14.7412 34.125L15.8916 30.6992L17.0195 32.4004ZM19.4844 33.0185L18.5273 33.8711L17.6885 32.6064L18.4971 32.3945L19.4844 33.0185ZM22.0791 32.3174L21.0195 33.4472L19.1025 32.2363L21.5938 31.5859L22.0791 32.3174ZM18.3398 31.9511L17.415 32.1924L16.1953 30.3535L18.5205 29.8086L18.3398 31.9511ZM15.5459 30.3369L14.9561 32.0947L13.4658 31.3408L14.0625 29.7461L15.5459 30.3369ZM13.6504 29.582L12.7441 32.0049L11.2139 29.6972L12.335 29.0586L13.6504 29.582ZM21.3193 31.1718L18.79 31.833L18.9658 29.7363L20.333 29.6855L21.3193 31.1718ZM21.707 30.9531L20.8535 29.666L22.9346 29.5888L21.707 30.9531ZM18.7334 27.2724L18.5615 29.3174L15.918 29.9365L14.4766 27.7627L17.1602 24.9013L18.7334 27.2724ZM15.2393 29.7168L12.8496 28.7656L14.126 28.0381L15.2393 29.7168ZM20.0293 29.2265L19.0059 29.2646L19.123 27.8613L20.0293 29.2265ZM20.1855 28.6591L19.2803 27.2939L20.0674 26.8457L20.1855 28.6591ZM24.002 28.3642L23.7051 27.6328L23.2158 27.1787L24.002 28.3642ZM16.9014 24.5107L14.2178 27.372L13.7949 26.7353L16.4795 23.874L16.9014 24.5107Z" fill="#356A32"/>
<g filter="url(#filter0_f_6_7)">
<path d="M23.1015 33.8888C23.3918 35.0259 22.9002 36.8791 22.9002 36.8791L23.504 36.4692C23.504 36.4692 24.6213 34.6244 24.7116 33.4587C24.7905 32.4406 24.6705 31.8242 24.3091 30.8783C23.9465 29.9293 23.9066 30.0885 22.9002 28.728C22.2445 27.8416 22.0043 27.3907 21.2901 26.5575C19.9007 24.9367 17.466 22.4719 17.466 22.4719L15.252 23.5672C15.252 23.5672 18.3387 26.4821 19.8812 28.513C21.4069 30.5218 22.4977 31.5234 23.1015 33.8888Z" fill="#223F21"/>
</g>
<path fill-rule="evenodd" clip-rule="evenodd" d="M22.5284 10C22.5284 10 32.5611 14.5359 37.5928 20.1065C38.0968 20.6644 38.5992 21.3967 38.8005 22.902C39.1313 25.023 37.3916 25.9326 37.3916 25.9326L35.213 27.5852C35.1906 27.6293 35.1776 27.6529 35.1776 27.6529L27.4551 33.4739C27.4551 33.4739 27.4557 33.4721 27.4575 33.4692L23.504 36.4692C23.504 36.4692 24.7983 34.3247 24.7117 32.8136C24.6447 31.6462 24.2973 31.0021 23.7053 30.0182C20.0825 23.9973 8.61017 14.5359 8.61017 14.5359L22.5284 10ZM12.6355 15.1809C12.6355 15.1809 23.8747 24.7946 26.5978 29.3924C27.0427 30.1437 27.3037 30.6358 27.3541 31.5272C27.4192 32.6811 26.5231 34.1038 26.5231 34.1038L27.5322 33.3399C27.7371 32.98 28.2703 31.9571 28.2217 31.0955C28.1753 30.2725 27.9342 29.8184 27.5239 29.1249C25.7036 26.0484 19.3928 20.0091 16.2584 17.0961C16.4587 17.0046 16.7956 17.076 17.0634 16.8811C17.4897 16.5709 17.8685 15.8059 17.2647 14.9458L21.2901 13.2255C22.0952 14.0856 22.699 14.3007 23.7002 14.0205C23.9072 13.9411 24.0965 13.8355 24.2655 13.7114C27.212 15.4075 33.4064 19.1747 34.7751 21.6118C35.5158 22.9307 35.6419 23.7481 35.7814 24.6575C35.9664 25.8633 35.459 27.0717 35.2562 27.4945L36.184 26.7927C36.184 26.7927 36.8352 25.5969 36.5865 23.9771C36.4352 22.9919 36.3865 22.7306 35.7814 21.4169C33.97 17.9562 22.699 11.7404 22.699 11.7404L12.6355 15.1809ZM29.7434 19.2464C27.6626 17.4279 24.761 16.5774 23.7053 17.9562C22.6496 19.335 24.2411 21.2985 26.3218 23.117C28.4025 24.9355 30.0965 26.2161 31.1522 24.8373C32.208 23.4585 31.8241 21.0649 29.7434 19.2464Z" fill="#77AD1A"/>
<path d="M51.1254 32.3328C51.1254 32.0869 51.1142 31.7664 51.0919 31.3714C51.077 30.9764 51.0546 30.5404 51.0248 30.0634C50.995 29.5864 50.9615 29.0796 50.9243 28.543C50.887 28.0063 50.8461 27.4735 50.8014 26.9443C50.7567 26.4151 50.712 25.9046 50.6673 25.4127C50.6301 24.9133 50.5929 24.4624 50.5556 24.06C50.4961 23.4861 50.4141 23.065 50.3099 22.7967C50.2056 22.5284 50.0343 22.3942 49.796 22.3942C49.5726 22.3942 49.4236 22.4576 49.3492 22.5843C49.2821 22.711 49.2412 22.8675 49.2263 23.0538C49.2188 23.2401 49.2151 23.4451 49.2151 23.6687C49.2226 23.8848 49.189 24.086 49.1146 24.2724C49.0475 24.4587 48.9172 24.6152 48.7236 24.7419C48.5299 24.8686 48.2321 24.932 47.8299 24.932C47.5469 24.932 47.3049 24.8164 47.1038 24.5854C46.9027 24.3469 46.8022 24.0041 46.8022 23.5569C46.8022 22.9308 46.9883 22.3644 47.3607 21.8576C47.7256 21.3433 48.2432 20.9073 48.9135 20.5496C49.5838 20.1844 50.3918 19.9012 51.3376 19.6999C52.2834 19.4987 53.3335 19.3981 54.4879 19.3981C55.3145 19.3981 56.0779 19.4912 56.7779 19.6776C57.478 19.8564 58.0812 20.1098 58.5876 20.4378C59.1015 20.7583 59.5037 21.1421 59.7941 21.5893C60.0846 22.029 60.2298 22.5097 60.2298 23.0314C60.2298 23.6202 60.0585 24.1829 59.7159 24.7196C59.3733 25.2562 58.9004 25.7481 58.2972 26.1953C57.7014 26.6424 56.9976 27.0337 56.1859 27.3691C55.3741 27.697 54.5028 27.9542 53.5718 28.1405C53.3112 28.1852 53.1808 28.3455 53.1808 28.6212C53.1808 28.8075 53.192 29.0423 53.2144 29.3255C53.2441 29.6013 53.2702 29.892 53.2926 30.1975C53.3223 30.5031 53.3484 30.805 53.3708 31.1031C53.4005 31.4012 53.4154 31.6658 53.4154 31.8968C53.4154 32.3142 53.3186 32.6123 53.125 32.7912C52.9314 32.9701 52.6446 33.0595 52.2648 33.0595C51.9073 33.0595 51.6281 32.9962 51.427 32.8695C51.2259 32.7502 51.1254 32.5713 51.1254 32.3328ZM57.9174 23.3556C57.9174 23.1022 57.8094 22.86 57.5934 22.629C57.3774 22.3979 57.087 22.193 56.7221 22.0141C56.3572 21.8352 55.9327 21.6936 55.4486 21.5893C54.9719 21.4849 54.4692 21.4328 53.9405 21.4328C53.6798 21.4328 53.4601 21.4439 53.2814 21.4663C53.1101 21.4812 52.9723 21.511 52.8681 21.5557C52.7638 21.6005 52.6893 21.6601 52.6446 21.7346C52.6074 21.8017 52.5888 21.8911 52.5888 22.0029C52.5888 22.0774 52.5999 22.2526 52.6223 22.5284C52.6446 22.7967 52.6744 23.1097 52.7117 23.4674C52.7489 23.8252 52.7861 24.2016 52.8234 24.5966C52.8681 24.9841 52.9127 25.3344 52.9574 25.6475C52.9798 25.8785 53.0096 26.0313 53.0468 26.1058C53.0915 26.1803 53.1585 26.2176 53.2479 26.2176C53.5011 26.2176 53.7915 26.1766 54.1192 26.0946C54.4469 26.0052 54.782 25.8897 55.1246 25.7481C55.4746 25.599 55.8135 25.4313 56.1412 25.245C56.4763 25.0512 56.7742 24.85 57.0349 24.6413C57.303 24.4252 57.5152 24.209 57.6716 23.9929C57.8355 23.7693 57.9174 23.5569 57.9174 23.3556Z" fill="#104722"/>
<path d="M69.7905 21.2762C70.2001 21.2762 70.5948 21.3396 70.9746 21.4663C71.3544 21.593 71.6895 21.7681 71.98 21.9917C72.2704 22.2153 72.5013 22.4836 72.6726 22.7967C72.8513 23.1097 72.9407 23.4563 72.9407 23.8364C72.9407 23.9929 72.9035 24.1457 72.829 24.2947C72.762 24.4363 72.6689 24.563 72.5497 24.6748C72.4306 24.7792 72.2928 24.8649 72.1364 24.932C71.9874 24.9916 71.831 25.0214 71.6672 25.0214C71.6523 25.0214 71.6374 25.0251 71.6225 25.0326C71.6151 25.0326 71.6039 25.0326 71.589 25.0326C71.5741 25.04 71.5592 25.0438 71.5443 25.0438L71.589 25.9381C71.6188 27.0039 71.7677 27.7828 72.0358 28.2747C72.3114 28.7666 72.6689 29.0125 73.1083 29.0125C73.2647 29.0125 73.4024 28.9976 73.5216 28.9678C73.6482 28.938 73.7636 28.9044 73.8679 28.8672C73.9796 28.8225 74.0839 28.7852 74.1807 28.7554C74.2775 28.7256 74.3743 28.7107 74.4711 28.7107C74.6424 28.7107 74.7914 28.7852 74.918 28.9343C75.052 29.0833 75.1191 29.2622 75.1191 29.4709C75.1191 29.6796 75.0371 29.8882 74.8733 30.0969C74.7169 30.3056 74.5084 30.4957 74.2477 30.6671C73.9871 30.8311 73.6929 30.9652 73.3652 31.0695C73.0375 31.1739 72.7061 31.2261 72.371 31.2261C71.7901 31.2261 71.2799 30.9876 70.8405 30.5106C70.4011 30.0261 70.0884 29.3181 69.9022 28.3865C69.8575 28.2374 69.7979 28.1629 69.7234 28.1629C69.6341 28.1629 69.5559 28.2076 69.4888 28.297C68.7515 29.2286 67.9658 29.9292 67.1317 30.3988C66.2976 30.8609 65.4747 31.0919 64.6629 31.0919C64.2831 31.0919 63.9405 31.036 63.6352 30.9242C63.3298 30.8124 63.0692 30.6559 62.8532 30.4547C62.6447 30.246 62.4808 29.9963 62.3617 29.7056C62.25 29.4075 62.1941 29.0759 62.1941 28.7107C62.1941 28.1964 62.3058 27.6561 62.5293 27.0896C62.7601 26.5232 63.0692 25.9642 63.4565 25.4127C63.8437 24.8612 64.2906 24.3357 64.797 23.8364C65.3109 23.337 65.8471 22.8973 66.4056 22.5172C66.9716 22.1371 67.5451 21.8352 68.126 21.6116C68.7069 21.388 69.2617 21.2762 69.7905 21.2762ZM69.4218 25.1444C69.5559 24.891 69.6787 24.7084 69.7905 24.5966C69.9022 24.4773 70.0623 24.3991 70.2708 24.3618C70.4347 24.3394 70.5166 24.2873 70.5166 24.2053C70.5166 24.1457 70.4942 24.0823 70.4495 24.0152C70.308 23.8215 70.1591 23.6538 70.0027 23.5122C69.8463 23.3631 69.6378 23.2886 69.3771 23.2886C69.0941 23.2886 68.7776 23.3706 68.4276 23.5345C68.0776 23.6985 67.7201 23.9183 67.3552 24.1941C66.9977 24.4624 66.6439 24.7717 66.2939 25.122C65.9513 25.4649 65.646 25.8189 65.3779 26.1841C65.1098 26.5493 64.8938 26.9107 64.73 27.2685C64.5661 27.6262 64.4842 27.9467 64.4842 28.2299C64.4842 28.4833 64.5512 28.6808 64.6853 28.8225C64.8268 28.9641 65.0167 29.0349 65.255 29.0349C65.8657 29.0349 66.5322 28.7107 67.2546 28.0622C67.977 27.4138 68.6994 26.4412 69.4218 25.1444Z" fill="#104722"/>
<path d="M78.9936 19.644C78.7777 19.644 78.5729 19.6142 78.3792 19.5546C78.193 19.4875 78.0292 19.3981 77.8877 19.2863C77.7537 19.167 77.6457 19.0291 77.5637 18.8726C77.4818 18.7161 77.4409 18.5447 77.4409 18.3584C77.4409 18.0453 77.5637 17.7919 77.8095 17.5982C78.0627 17.4044 78.3978 17.3075 78.8149 17.3075C79.0085 17.3075 79.1947 17.3448 79.3735 17.4193C79.5522 17.4864 79.7086 17.5795 79.8426 17.6988C79.9841 17.818 80.0959 17.9596 80.1778 18.1236C80.2597 18.2801 80.3007 18.4441 80.3007 18.6155C80.3007 18.936 80.1815 19.1894 79.9432 19.3757C79.7123 19.5546 79.3958 19.644 78.9936 19.644ZM77.4632 23.0538C77.4632 22.7929 77.5749 22.5805 77.7983 22.4166C78.0292 22.2451 78.3308 22.1594 78.7032 22.1594C79.3735 22.1594 79.7309 22.3905 79.7756 22.8526C79.8054 23.173 79.8352 23.5345 79.865 23.937C79.9022 24.3394 79.9357 24.768 79.9655 25.2226C80.0028 25.6698 80.0326 26.1356 80.0549 26.6201C80.0847 27.0971 80.1107 27.5703 80.1331 28.0399C80.1554 28.502 80.1741 28.9492 80.1889 29.3814C80.2038 29.8137 80.2113 30.2087 80.2113 30.5665C80.2113 30.9391 80.0772 31.2186 79.8091 31.4049C79.5485 31.5913 79.1649 31.6844 78.6585 31.6844C78.4276 31.6844 78.2452 31.6285 78.1111 31.5167C77.9845 31.4124 77.9212 31.2559 77.9212 31.0472C77.9212 30.0187 77.8952 29.0572 77.843 28.1629C77.7983 27.261 77.7462 26.4598 77.6866 25.7593C77.6345 25.0587 77.5824 24.4773 77.5302 24.0152C77.4855 23.5457 77.4632 23.2252 77.4632 23.0538Z" fill="#104722"/>
<path d="M86.8898 21.3433C87.3888 21.3433 87.9027 21.4104 88.4314 21.5446C88.9602 21.6713 89.4443 21.8389 89.8837 22.0476C90.3231 22.2489 90.6843 22.4762 90.9673 22.7296C91.2503 22.983 91.3918 23.2289 91.3918 23.4674C91.3918 23.5867 91.3396 23.7208 91.2354 23.8699C91.1311 24.0115 91.0045 24.1494 90.8555 24.2835C90.7066 24.4103 90.5428 24.5183 90.364 24.6078C90.1927 24.6897 90.0401 24.7307 89.906 24.7307C89.7273 24.7307 89.5262 24.6562 89.3028 24.5071C89.0868 24.3581 88.8447 24.1941 88.5766 24.0152C88.316 23.8289 88.0293 23.6612 87.7165 23.5122C87.4037 23.3631 87.0648 23.2886 86.6999 23.2886C86.4616 23.2886 86.2642 23.3482 86.1078 23.4674C85.9589 23.5792 85.8844 23.7395 85.8844 23.9482C85.8844 24.1345 85.9738 24.3245 86.1525 24.5183C86.3313 24.7046 86.5658 24.8984 86.8563 25.0997C87.1542 25.3009 87.4893 25.5133 87.8617 25.7369C88.2341 25.9605 88.6139 26.199 89.0011 26.4524C89.3959 26.7058 89.7794 26.9816 90.1518 27.2797C90.5241 27.5778 90.8555 27.902 91.146 28.2523C91.4439 28.6026 91.6822 28.9864 91.8609 29.4038C92.0397 29.8137 92.129 30.2609 92.129 30.7453C92.129 31.1627 92.0546 31.5428 91.9056 31.8857C91.7567 32.2285 91.5444 32.5229 91.2689 32.7688C90.9933 33.0148 90.6656 33.2048 90.2858 33.339C89.906 33.4732 89.4889 33.5402 89.0347 33.5402C88.4612 33.5402 87.9324 33.4508 87.4484 33.2719C86.9643 33.1005 86.5472 32.862 86.1972 32.5564C85.8472 32.2509 85.5716 31.8857 85.3705 31.4608C85.1769 31.036 85.0801 30.5702 85.0801 30.0634C85.0801 29.4075 85.1955 28.9305 85.4264 28.6324C85.6647 28.3343 86.0371 28.1852 86.5435 28.1852C86.8563 28.1852 87.1058 28.2448 87.292 28.3641C87.4782 28.4833 87.5712 28.6287 87.5712 28.8001C87.5712 28.8895 87.5563 28.9827 87.5266 29.0796C87.4968 29.169 87.4633 29.2659 87.426 29.3703C87.3962 29.4671 87.3664 29.5715 87.3367 29.6833C87.3143 29.7951 87.3031 29.9069 87.3031 30.0187C87.3031 30.2124 87.3478 30.3988 87.4372 30.5776C87.5266 30.7565 87.6457 30.913 87.7947 31.0472C87.9511 31.1888 88.1298 31.3006 88.3309 31.3826C88.532 31.4646 88.7442 31.5056 88.9676 31.5056C89.5634 31.5056 89.8613 31.2596 89.8613 30.7677C89.8613 30.3801 89.7086 30.0149 89.4033 29.6721C89.098 29.3218 88.7144 28.9827 88.2527 28.6548C87.7909 28.3194 87.292 27.984 86.7558 27.6486C86.227 27.3132 85.7317 26.9629 85.27 26.5977C84.8083 26.2325 84.4247 25.845 84.1194 25.435C83.814 25.0177 83.6614 24.5668 83.6614 24.0823C83.6614 23.6799 83.7433 23.3109 83.9071 22.9755C84.0784 22.6402 84.3093 22.3532 84.5997 22.1147C84.8902 21.8688 85.229 21.6787 85.6163 21.5446C86.011 21.4104 86.4355 21.3433 86.8898 21.3433Z" fill="#104722"/>
<path d="M101.377 21.2762C101.787 21.2762 102.181 21.3396 102.561 21.4663C102.941 21.593 103.276 21.7681 103.566 21.9917C103.857 22.2153 104.088 22.4836 104.259 22.7967C104.438 23.1097 104.527 23.4563 104.527 23.8364C104.527 23.9929 104.49 24.1457 104.415 24.2947C104.348 24.4363 104.255 24.563 104.136 24.6748C104.017 24.7792 103.879 24.8649 103.723 24.932C103.574 24.9916 103.418 25.0214 103.254 25.0214C103.239 25.0214 103.224 25.0251 103.209 25.0326C103.202 25.0326 103.19 25.0326 103.175 25.0326C103.161 25.04 103.146 25.0438 103.131 25.0438L103.175 25.9381C103.205 27.0039 103.354 27.7828 103.622 28.2747C103.898 28.7666 104.255 29.0125 104.695 29.0125C104.851 29.0125 104.989 28.9976 105.108 28.9678C105.235 28.938 105.35 28.9044 105.454 28.8672C105.566 28.8225 105.67 28.7852 105.767 28.7554C105.864 28.7256 105.961 28.7107 106.058 28.7107C106.229 28.7107 106.378 28.7852 106.504 28.9343C106.638 29.0833 106.706 29.2622 106.706 29.4709C106.706 29.6796 106.624 29.8882 106.46 30.0969C106.303 30.3056 106.095 30.4957 105.834 30.6671C105.574 30.8311 105.279 30.9652 104.952 31.0695C104.624 31.1739 104.293 31.2261 103.957 31.2261C103.377 31.2261 102.866 30.9876 102.427 30.5106C101.988 30.0261 101.675 29.3181 101.489 28.3865C101.444 28.2374 101.384 28.1629 101.31 28.1629C101.221 28.1629 101.142 28.2076 101.075 28.297C100.338 29.2286 99.5523 29.9292 98.7182 30.3988C97.8841 30.8609 97.0612 31.0919 96.2494 31.0919C95.8696 31.0919 95.527 31.036 95.2216 30.9242C94.9163 30.8124 94.6556 30.6559 94.4397 30.4547C94.2311 30.246 94.0673 29.9963 93.9481 29.7056C93.8364 29.4075 93.7806 29.0759 93.7806 28.7107C93.7806 28.1964 93.8923 27.6561 94.1157 27.0896C94.3466 26.5232 94.6556 25.9642 95.0429 25.4127C95.4302 24.8612 95.877 24.3357 96.3834 23.8364C96.8973 23.337 97.4335 22.8973 97.9921 22.5172C98.5581 22.1371 99.1315 21.8352 99.7124 21.6116C100.293 21.388 100.848 21.2762 101.377 21.2762ZM101.008 25.1444C101.142 24.891 101.265 24.7084 101.377 24.5966C101.489 24.4773 101.649 24.3991 101.857 24.3618C102.021 24.3394 102.103 24.2873 102.103 24.2053C102.103 24.1457 102.081 24.0823 102.036 24.0152C101.895 23.8215 101.746 23.6538 101.589 23.5122C101.433 23.3631 101.224 23.2886 100.964 23.2886C100.681 23.2886 100.364 23.3706 100.014 23.5345C99.664 23.6985 99.3065 23.9183 98.9416 24.1941C98.5841 24.4624 98.2304 24.7717 97.8804 25.122C97.5378 25.4649 97.2324 25.8189 96.9643 26.1841C96.6962 26.5493 96.4803 26.9107 96.3164 27.2685C96.1526 27.6262 96.0707 27.9467 96.0707 28.2299C96.0707 28.4833 96.1377 28.6808 96.2717 28.8225C96.4132 28.9641 96.6031 29.0349 96.8415 29.0349C97.4521 29.0349 98.1187 28.7107 98.8411 28.0622C99.5635 27.4138 100.286 26.4412 101.008 25.1444Z" fill="#104722"/>
<path d="M119.74 24.9543C119.651 24.9543 119.573 25.0251 119.506 25.1667C119.223 25.7183 118.921 26.2176 118.601 26.6648C118.288 27.112 117.972 27.4921 117.651 27.8051C117.331 28.1181 117.015 28.3604 116.702 28.5318C116.389 28.6958 116.095 28.7777 115.819 28.7777C115.551 28.7777 115.302 28.7218 115.071 28.61C114.847 28.4908 114.602 28.2709 114.334 27.9504C114.073 27.63 113.771 27.1865 113.429 26.6201C113.094 26.0536 112.68 25.3158 112.189 24.4065C112.107 24.2575 112.021 24.1494 111.932 24.0823C111.85 24.0078 111.775 23.9705 111.708 23.9705C111.612 23.9705 111.522 24.0749 111.44 24.2835C111.358 24.4848 111.288 24.7717 111.228 25.1444C111.168 25.5096 111.12 25.953 111.083 26.4747C111.053 26.989 111.038 27.5592 111.038 28.1852C111.038 28.5579 111.057 28.9305 111.094 29.3032C111.139 29.6758 111.161 30.0597 111.161 30.4547C111.161 30.5888 111.124 30.7155 111.049 30.8348C110.975 30.9466 110.874 31.0435 110.748 31.1254C110.629 31.2149 110.483 31.2857 110.312 31.3379C110.148 31.39 109.973 31.4161 109.787 31.4161C109.415 31.4161 109.146 31.1925 108.983 30.7453C108.819 30.2982 108.737 29.5827 108.737 28.5989C108.737 27.3542 108.804 26.2251 108.938 25.2115C109.079 24.1904 109.277 23.3184 109.53 22.5954C109.791 21.865 110.096 21.3023 110.446 20.9073C110.804 20.5049 111.202 20.3036 111.641 20.3036C112.029 20.3036 112.397 20.5272 112.747 20.9744C113.105 21.4141 113.488 22.1296 113.898 23.1209C114.062 23.5233 114.237 23.8997 114.423 24.25C114.617 24.6003 114.806 24.9059 114.993 25.1667C115.186 25.4201 115.372 25.6214 115.551 25.7704C115.73 25.912 115.89 25.9828 116.032 25.9828C116.173 25.9828 116.307 25.953 116.434 25.8934C116.568 25.8263 116.717 25.6884 116.881 25.4798C117.052 25.2636 117.249 24.9506 117.473 24.5407C117.704 24.1308 117.987 23.583 118.322 22.8973C118.5 22.5395 118.661 22.2414 118.802 22.0029C118.944 21.7644 119.085 21.5744 119.227 21.4328C119.368 21.2837 119.517 21.1794 119.673 21.1197C119.83 21.0527 120.005 21.0191 120.198 21.0191C120.429 21.0191 120.656 21.1421 120.88 21.388C121.103 21.634 121.319 21.9619 121.528 22.3718C121.744 22.7818 121.952 23.2588 122.153 23.8028C122.354 24.3469 122.548 24.9171 122.734 25.5133C122.928 26.1095 123.114 26.717 123.293 27.3356C123.479 27.9467 123.658 28.5281 123.829 29.0796C123.874 29.2436 123.903 29.3591 123.918 29.4262C123.941 29.4858 123.952 29.5603 123.952 29.6497C123.952 29.7764 123.911 29.9031 123.829 30.0298C123.755 30.1491 123.654 30.2572 123.527 30.3541C123.401 30.4509 123.256 30.5292 123.092 30.5888C122.935 30.6485 122.779 30.6783 122.623 30.6783C122.414 30.6783 122.25 30.6559 122.131 30.6112C122.019 30.559 121.93 30.4696 121.863 30.3429C121.826 30.2758 121.762 30.0969 121.673 29.8063C121.584 29.5156 121.476 29.1727 121.349 28.7777C121.23 28.3753 121.096 27.9504 120.947 27.5033C120.805 27.0561 120.66 26.6462 120.511 26.2735C120.37 25.8934 120.232 25.5804 120.098 25.3344C119.964 25.081 119.845 24.9543 119.74 24.9543Z" fill="#104722"/>
<path d="M133.635 21.2762C134.045 21.2762 134.44 21.3396 134.82 21.4663C135.199 21.593 135.535 21.7681 135.825 21.9917C136.115 22.2153 136.346 22.4836 136.518 22.7967C136.696 23.1097 136.786 23.4563 136.786 23.8364C136.786 23.9929 136.748 24.1457 136.674 24.2947C136.607 24.4363 136.514 24.563 136.395 24.6748C136.276 24.7792 136.138 24.8649 135.981 24.932C135.832 24.9916 135.676 25.0214 135.512 25.0214C135.497 25.0214 135.482 25.0251 135.467 25.0326C135.46 25.0326 135.449 25.0326 135.434 25.0326C135.419 25.04 135.404 25.0438 135.389 25.0438L135.434 25.9381C135.464 27.0039 135.613 27.7828 135.881 28.2747C136.156 28.7666 136.514 29.0125 136.953 29.0125C137.11 29.0125 137.247 28.9976 137.367 28.9678C137.493 28.938 137.609 28.9044 137.713 28.8672C137.825 28.8225 137.929 28.7852 138.026 28.7554C138.122 28.7256 138.219 28.7107 138.316 28.7107C138.487 28.7107 138.636 28.7852 138.763 28.9343C138.897 29.0833 138.964 29.2622 138.964 29.4709C138.964 29.6796 138.882 29.8882 138.718 30.0969C138.562 30.3056 138.353 30.4957 138.093 30.6671C137.832 30.8311 137.538 30.9652 137.21 31.0695C136.882 31.1739 136.551 31.2261 136.216 31.2261C135.635 31.2261 135.125 30.9876 134.686 30.5106C134.246 30.0261 133.933 29.3181 133.747 28.3865C133.702 28.2374 133.643 28.1629 133.568 28.1629C133.479 28.1629 133.401 28.2076 133.334 28.297C132.597 29.2286 131.811 29.9292 130.977 30.3988C130.143 30.8609 129.32 31.0919 128.508 31.0919C128.128 31.0919 127.786 31.036 127.48 30.9242C127.175 30.8124 126.914 30.6559 126.698 30.4547C126.49 30.246 126.326 29.9963 126.207 29.7056C126.095 29.4075 126.039 29.0759 126.039 28.7107C126.039 28.1964 126.151 27.6561 126.374 27.0896C126.605 26.5232 126.914 25.9642 127.301 25.4127C127.689 24.8612 128.136 24.3357 128.642 23.8364C129.156 23.337 129.692 22.8973 130.251 22.5172C130.817 22.1371 131.39 21.8352 131.971 21.6116C132.552 21.388 133.107 21.2762 133.635 21.2762ZM133.267 25.1444C133.401 24.891 133.524 24.7084 133.635 24.5966C133.747 24.4773 133.907 24.3991 134.116 24.3618C134.28 24.3394 134.362 24.2873 134.362 24.2053C134.362 24.1457 134.339 24.0823 134.295 24.0152C134.153 23.8215 134.004 23.6538 133.848 23.5122C133.691 23.3631 133.483 23.2886 133.222 23.2886C132.939 23.2886 132.623 23.3706 132.273 23.5345C131.923 23.6985 131.565 23.9183 131.2 24.1941C130.843 24.4624 130.489 24.7717 130.139 25.122C129.796 25.4649 129.491 25.8189 129.223 26.1841C128.955 26.5493 128.739 26.9107 128.575 27.2685C128.411 27.6262 128.329 27.9467 128.329 28.2299C128.329 28.4833 128.396 28.6808 128.53 28.8225C128.672 28.9641 128.862 29.0349 129.1 29.0349C129.711 29.0349 130.377 28.7107 131.1 28.0622C131.822 27.4138 132.544 26.4412 133.267 25.1444Z" fill="#104722"/>
<path d="M140.079 23.2438C140.079 22.9532 140.21 22.7333 140.47 22.5843C140.731 22.4277 141.103 22.3495 141.587 22.3495C141.699 22.3495 141.8 22.3644 141.889 22.3942C141.978 22.424 142.057 22.4836 142.124 22.5731C142.198 22.6551 142.265 22.7706 142.325 22.9196C142.384 23.0687 142.444 23.2588 142.503 23.4898C142.563 23.7507 142.623 23.8811 142.682 23.8811C142.734 23.8811 142.798 23.773 142.872 23.5569C143.006 23.1321 143.181 22.7631 143.397 22.4501C143.621 22.1296 143.87 21.865 144.146 21.6563C144.421 21.4402 144.719 21.28 145.039 21.1756C145.367 21.0713 145.71 21.0191 146.067 21.0191C146.789 21.0191 147.463 21.157 148.089 21.4328C148.715 21.7011 149.255 22.0774 149.709 22.5619C150.163 23.0389 150.521 23.6053 150.781 24.2612C151.042 24.9096 151.172 25.6139 151.172 26.3741C151.172 27.1791 151.031 27.9244 150.748 28.61C150.472 29.2957 150.085 29.8882 149.586 30.3876C149.087 30.8795 148.491 31.2633 147.799 31.5391C147.113 31.8223 146.361 31.9639 145.542 31.9639L144.972 31.9416C144.637 31.9416 144.47 32.1316 144.47 32.5117L145.039 37.6431C145.032 37.7698 144.987 37.8854 144.905 37.9897C144.831 38.1015 144.727 38.1984 144.592 38.2804C144.466 38.3624 144.313 38.4257 144.134 38.4704C143.963 38.5151 143.784 38.5375 143.598 38.5375C143.062 38.5375 142.772 38.3624 142.727 38.0121C142.571 36.6556 142.395 35.3662 142.202 34.1439C142.016 32.9216 141.822 31.785 141.621 30.7342C141.427 29.6758 141.237 28.7144 141.051 27.8498C140.865 26.9853 140.697 26.2325 140.549 25.5916C140.407 24.9506 140.295 24.4289 140.213 24.0264C140.124 23.624 140.079 23.3631 140.079 23.2438ZM143.71 26.1953C143.71 26.6797 143.729 27.1604 143.766 27.6374C143.803 28.107 143.863 28.6175 143.945 29.169C143.989 29.5044 144.172 29.6945 144.492 29.7392C144.686 29.7839 144.902 29.8286 145.14 29.8733C145.386 29.9106 145.59 29.9292 145.754 29.9292C146.231 29.9292 146.663 29.8584 147.05 29.7168C147.437 29.5752 147.769 29.374 148.044 29.1131C148.32 28.8448 148.532 28.5281 148.681 28.1629C148.83 27.7977 148.905 27.3915 148.905 26.9443C148.905 26.4002 148.83 25.8934 148.681 25.4239C148.532 24.9469 148.327 24.5332 148.067 24.1829C147.813 23.8326 147.512 23.5569 147.162 23.3556C146.819 23.1544 146.447 23.0538 146.045 23.0538C145.695 23.0538 145.374 23.1321 145.084 23.2886C144.801 23.4376 144.555 23.65 144.347 23.9258C144.146 24.1941 143.989 24.522 143.878 24.9096C143.766 25.2972 143.71 25.7257 143.71 26.1953Z" fill="#104722"/>
<defs>
<filter id="filter0_f_6_7" x="12.2676" y="19.4874" width="15.4517" height="20.3761" filterUnits="userSpaceOnUse" color-interpolation-filters="sRGB">
<feFlood flood-opacity="0" result="BackgroundImageFix"/>
<feBlend mode="normal" in="SourceGraphic" in2="BackgroundImageFix" result="shape"/>
<feGaussianBlur stdDeviation="1.49222" result="effect1_foregroundBlur_6_7"/>
</filter>
</defs>
</svg>
